<svg width="6000px" height="3000px" xmlns="http://www.w3.org/2000/svg" xmlns:xlink="http://www.w3.org/1999/xlink">
<g style="">  <path d="M69.120000,1943.056880 L207.360000,1943.056880 L207.360000,999.856880 L270.720000,999.856880 L270.720000,871.696880 L7.200000,871.696880 L7.200000,999.856880 L69.120000,999.856880 L69.120000,1943.056880 Z " style="fill: rgba(0, 0, 0, 1.000000); " fill="#000000" stroke="none" />
  <path d="M309.000000,1943.056880 L450.120000,1943.056880 L450.120000,1454.896880 L478.920000,1454.896880 L478.920000,1943.056880 L618.600000,1943.056880 L618.600000,871.696880 L478.920000,871.696880 L478.920000,1309.456880 L450.120000,1309.456880 L450.120000,871.696880 L309.000000,871.696880 L309.000000,1943.056880 Z " style="fill: rgba(0, 0, 0, 1.000000); " fill="#000000" stroke="none" />
  <path d="M659.760000,871.696880 L659.760000,1943.056880 L897.360000,1943.056880 L897.360000,1813.456880 L798.000000,1813.456880 L798.000000,1444.816880 L881.520000,1444.816880 L881.520000,1312.336880 L798.000000,1312.336880 L798.000000,999.856880 L894.480000,999.856880 L894.480000,871.696880 L659.760000,871.696880 Z " style="fill: rgba(0, 0, 0, 1.000000); " fill="#000000" stroke="none" />
  <path d="M1016.280000,1943.056880 " style="fill: rgba(0, 0, 0, 1.000000); " fill="#000000" stroke="none" />
  <path d="M1047.360000,871.696880 L1047.360000,1943.056880 L1284.960000,1943.056880 L1284.960000,1813.456880 L1185.600000,1813.456880 L1185.600000,1444.816880 L1269.120000,1444.816880 L1269.120000,1312.336880 L1185.600000,1312.336880 L1185.600000,999.856880 L1282.080000,999.856880 L1282.080000,871.696880 L1047.360000,871.696880 Z " style="fill: rgba(0, 0, 0, 1.000000); " fill="#000000" stroke="none" />
  <path d="M1324.680000,871.696880 L1324.680000,1943.056880 L1438.440000,1943.056880 L1437.000000,1254.736880 L1503.240000,1943.056880 L1634.280000,1943.056880 L1634.280000,871.696880 L1519.080000,871.696880 L1521.960000,1489.456880 L1467.240000,871.696880 L1324.680000,871.696880 Z " style="fill: rgba(0, 0, 0, 1.000000); " fill="#000000" stroke="none" />
  <path d="M1675.440000,1943.056880 L1878.480000,1943.056880 C1940.400000,1943.056880,1983.600000,1901.296880,1983.600000,1817.776880 L1983.600000,991.216880 C1983.600000,904.816880,1937.520000,871.696880,1875.600000,871.696880 L1675.440000,871.696880 Z M1813.680000,986.896880 L1826.640000,986.896880 C1839.600000,986.896880,1843.920000,995.536880,1843.920000,1012.816880 L1843.920000,1797.616880 C1843.920000,1816.336880,1839.600000,1824.976880,1826.640000,1824.976880 L1813.680000,1824.976880 Z " style="fill: rgba(0, 0, 0, 1.000000); " fill="#000000" stroke="none" />
  <path d="M2105.400000,1943.056880 " style="fill: rgba(0, 0, 0, 1.000000); " fill="#000000" stroke="none" />
  <path d="M2454.720000,1027.216880 C2454.720000,927.856880,2410.080000,864.496880,2306.400000,864.496880 L2286.240000,864.496880 C2182.560000,864.496880,2136.480000,926.416880,2136.480000,1027.216880 L2136.480000,1790.416880 C2136.480000,1891.216880,2188.320000,1950.256880,2286.240000,1950.256880 L2306.400000,1950.256880 C2400.000000,1950.256880,2454.720000,1892.656880,2454.720000,1790.416880 Z M2312.160000,1801.936880 C2312.160000,1816.336880,2306.400000,1824.976880,2296.320000,1824.976880 C2284.800000,1824.976880,2280.480000,1816.336880,2280.480000,1801.936880 L2280.480000,1012.816880 C2280.480000,995.536880,2283.360000,988.336880,2296.320000,988.336880 C2307.840000,988.336880,2312.160000,996.976880,2312.160000,1012.816880 Z " style="fill: rgba(0, 0, 0, 1.000000); " fill="#000000" stroke="none" />
  <path d="M2495.880000,1943.056880 L2632.680000,1943.056880 L2632.680000,1444.816880 L2714.760000,1444.816880 L2713.320000,1313.776880 L2632.680000,1313.776880 L2632.680000,999.856880 L2727.720000,999.856880 L2727.720000,871.696880 L2495.880000,871.696880 L2495.880000,1943.056880 Z " style="fill: rgba(0, 0, 0, 1.000000); " fill="#000000" stroke="none" />
  <path d="M2846.640000,1943.056880 " style="fill: rgba(0, 0, 0, 1.000000); " fill="#000000" stroke="none" />
  <path d="M3034.680000,1603.216880 L3000.120000,1603.216880 L3017.400000,1151.056880 Z M3047.640000,1943.056880 L3183.000000,1943.056880 L3111.000000,871.696880 L2932.440000,871.696880 L2864.760000,1943.056880 L2985.720000,1943.056880 L2994.360000,1725.616880 L3039.000000,1725.616880 Z " style="fill: rgba(0, 0, 0, 1.000000); " fill="#000000" stroke="none" />
  <path d="M3211.200000,871.696880 L3211.200000,1943.056880 L3437.280000,1943.056880 L3437.280000,1812.016880 L3350.880000,1812.016880 L3349.440000,871.696880 L3211.200000,871.696880 Z " style="fill: rgba(0, 0, 0, 1.000000); " fill="#000000" stroke="none" />
  <path d="M3475.560000,871.696880 L3475.560000,1943.056880 L3701.640000,1943.056880 L3701.640000,1812.016880 L3615.240000,1812.016880 L3613.800000,871.696880 L3475.560000,871.696880 Z " style="fill: rgba(0, 0, 0, 1.000000); " fill="#000000" stroke="none" />
  <path d="M3820.560000,1943.056880 " style="fill: rgba(0, 0, 0, 1.000000); " fill="#000000" stroke="none" />
  <path d="M3910.680000,1943.056880 L4048.920000,1943.056880 L4048.920000,999.856880 L4112.280000,999.856880 L4112.280000,871.696880 L3848.760000,871.696880 L3848.760000,999.856880 L3910.680000,999.856880 L3910.680000,1943.056880 Z " style="fill: rgba(0, 0, 0, 1.000000); " fill="#000000" stroke="none" />
  <path d="M4150.560000,1943.056880 L4291.680000,1943.056880 L4291.680000,1454.896880 L4320.480000,1454.896880 L4320.480000,1943.056880 L4460.160000,1943.056880 L4460.160000,871.696880 L4320.480000,871.696880 L4320.480000,1309.456880 L4291.680000,1309.456880 L4291.680000,871.696880 L4150.560000,871.696880 L4150.560000,1943.056880 Z " style="fill: rgba(0, 0, 0, 1.000000); " fill="#000000" stroke="none" />
  <path d="M4642.440000,871.696880 L4501.320000,871.696880 L4501.320000,1943.056880 L4642.440000,1943.056880 L4642.440000,871.696880 Z " style="fill: rgba(0, 0, 0, 1.000000); " fill="#000000" stroke="none" />
  <path d="M4685.040000,871.696880 L4685.040000,1943.056880 L4798.800000,1943.056880 L4797.360000,1254.736880 L4863.600000,1943.056880 L4994.640000,1943.056880 L4994.640000,871.696880 L4879.440000,871.696880 L4882.320000,1489.456880 L4827.600000,871.696880 L4685.040000,871.696880 Z " style="fill: rgba(0, 0, 0, 1.000000); " fill="#000000" stroke="none" />
  <path d="M5145.240000,1950.256880 C5192.760000,1950.256880,5221.560000,1915.696880,5240.280000,1886.896880 C5244.600000,1899.856880,5253.240000,1928.656880,5254.680000,1943.056880 L5349.720000,1943.056880 L5349.720000,1316.656880 L5189.880000,1316.656880 L5189.880000,1426.096880 L5217.240000,1426.096880 L5217.240000,1807.696880 C5217.240000,1824.976880,5210.040000,1833.616880,5197.080000,1833.616880 C5184.120000,1833.616880,5178.360000,1824.976880,5178.360000,1807.696880 L5178.360000,1004.176880 C5178.360000,991.216880,5181.240000,982.576880,5192.760000,982.576880 C5207.160000,982.576880,5208.600000,991.216880,5208.600000,1004.176880 L5208.600000,1282.096880 L5343.960000,1282.096880 L5343.960000,996.976880 C5343.960000,929.296880,5313.720000,864.496880,5201.400000,864.496880 L5182.680000,864.496880 C5071.800000,864.496880,5035.800000,929.296880,5035.800000,1005.616880 L5035.800000,1814.896880 C5035.800000,1888.336880,5070.360000,1950.256880,5142.360000,1950.256880 L5145.240000,1950.256880 Z " style="fill: rgba(0, 0, 0, 1.000000); " fill="#000000" stroke="none" />
  <path d="M5524.800000,1950.256880 L5556.480000,1950.256880 C5654.400000,1950.256880,5700.480000,1894.096880,5700.480000,1803.376880 L5700.480000,1526.896880 C5700.480000,1452.016880,5683.200000,1413.136880,5628.480000,1364.176880 L5553.600000,1289.296880 C5536.320000,1270.576880,5532.000000,1261.936880,5532.000000,1234.576880 L5532.000000,991.216880 C5532.000000,979.696880,5536.320000,973.936880,5546.400000,973.936880 C5556.480000,973.936880,5560.800000,979.696880,5560.800000,991.216880 L5560.800000,1273.456880 L5694.720000,1273.456880 L5694.720000,985.456880 C5694.720000,916.336880,5664.480000,864.496880,5562.240000,864.496880 L5530.560000,864.496880 C5429.760000,864.496880,5390.880000,916.336880,5390.880000,996.976880 L5390.880000,1240.336880 C5390.880000,1306.576880,5408.160000,1354.096880,5454.240000,1397.296880 L5530.560000,1472.176880 C5550.720000,1492.336880,5555.040000,1503.856880,5555.040000,1532.656880 L5555.040000,1810.576880 C5555.040000,1824.976880,5550.720000,1833.616880,5539.200000,1833.616880 C5527.680000,1833.616880,5524.800000,1824.976880,5524.800000,1810.576880 L5524.800000,1486.576880 L5386.560000,1486.576880 L5386.560000,1820.656880 C5386.560000,1905.616880,5432.640000,1950.256880,5524.800000,1950.256880 Z " style="fill: rgba(0, 0, 0, 1.000000); " fill="#000000" stroke="none" />
</g></svg>