<svg width="3300px" height="5700px" xmlns="http://www.w3.org/2000/svg" xmlns:xlink="http://www.w3.org/1999/xlink">
<style>
  .logo-fill { fill: #000; }
  .word-all {
    fill: #009ACE;
    animation: all-color-cycle 36s linear infinite;
  }

  @media (prefers-color-scheme: dark) {
    .logo-fill { fill: #fff; }
  }

  @media (prefers-reduced-motion: reduce) {
    .word-all { animation: none; }
  }

  @keyframes all-color-cycle {
    0%, 100% { fill: #009ACE; }
    14.285% { fill: #44D62C; }
    28.57% { fill: #FFE900; }
    42.855% { fill: #FF4A00; }
    57.14% { fill: #FF7276; }
    71.425% { fill: #FF3EB5; }
    85.71% { fill: #8A69D4; }
  }
</style>

<g style="">  <path class="logo-fill" d="M142.007140,1056.132761 L280.247140,1056.132761 L280.247140,112.932761 L343.607140,112.932761 L343.607140,-15.227239 L80.087140,-15.227239 L80.087140,112.932761 L142.007140,112.932761 L142.007140,1056.132761 Z " stroke="none" />
  <path class="logo-fill" d="M381.887140,1056.132761 L523.007140,1056.132761 L523.007140,567.972761 L551.807140,567.972761 L551.807140,1056.132761 L691.487140,1056.132761 L691.487140,-15.227239 L551.807140,-15.227239 L551.807140,422.532761 L523.007140,422.532761 L523.007140,-15.227239 L381.887140,-15.227239 L381.887140,1056.132761 Z " stroke="none" />
  <path class="logo-fill" d="M732.647140,-15.227239 L732.647140,1056.132761 L970.247140,1056.132761 L970.247140,926.532761 L870.887140,926.532761 L870.887140,557.892761 L954.407140,557.892761 L954.407140,425.412761 L870.887140,425.412761 L870.887140,112.932761 L967.367140,112.932761 L967.367140,-15.227239 L732.647140,-15.227239 Z " stroke="none" />
  <path class="logo-fill" d="M79.818700,1095.383457 L79.818700,2166.743457 L317.418700,2166.743457 L317.418700,2037.143457 L218.058700,2037.143457 L218.058700,1668.503457 L301.578700,1668.503457 L301.578700,1536.023457 L218.058700,1536.023457 L218.058700,1223.543457 L314.538700,1223.543457 L314.538700,1095.383457 L79.818700,1095.383457 Z " stroke="none" />
  <path class="logo-fill" d="M357.138700,1095.383457 L357.138700,2166.743457 L470.898700,2166.743457 L469.458700,1478.423457 L535.698700,2166.743457 L666.738700,2166.743457 L666.738700,1095.383457 L551.538700,1095.383457 L554.418700,1713.143457 L499.698700,1095.383457 L357.138700,1095.383457 Z " stroke="none" />
  <path class="logo-fill" d="M707.898700,2166.743457 L910.938700,2166.743457 C972.858700,2166.743457,1016.058700,2124.983457,1016.058700,2041.463457 L1016.058700,1214.903457 C1016.058700,1128.503457,969.978700,1095.383457,908.058700,1095.383457 L707.898700,1095.383457 Z M846.138700,1210.583457 L859.098700,1210.583457 C872.058700,1210.583457,876.378700,1219.223457,876.378700,1236.503457 L876.378700,2021.303457 C876.378700,2040.023457,872.058700,2048.663457,859.098700,2048.663457 L846.138700,2048.663457 Z " stroke="none" />
  <path class="logo-fill" d="M397.626533,2361.431612 C397.626533,2262.071612,352.986533,2198.711612,249.306533,2198.711612 L229.146533,2198.711612 C125.466533,2198.711612,79.386533,2260.631612,79.386533,2361.431612 L79.386533,3124.631612 C79.386533,3225.431612,131.226533,3284.471612,229.146533,3284.471612 L249.306533,3284.471612 C342.906533,3284.471612,397.626533,3226.871612,397.626533,3124.631612 Z M255.066533,3136.151612 C255.066533,3150.551612,249.306533,3159.191612,239.226533,3159.191612 C227.706533,3159.191612,223.386533,3150.551612,223.386533,3136.151612 L223.386533,2347.031612 C223.386533,2329.751612,226.266533,2322.551612,239.226533,2322.551612 C250.746533,2322.551612,255.066533,2331.191612,255.066533,2347.031612 Z " stroke="none" />
  <path class="logo-fill" d="M438.786533,3277.271612 L575.586533,3277.271612 L575.586533,2779.031612 L657.666533,2779.031612 L656.226533,2647.991612 L575.586533,2647.991612 L575.586533,2334.071612 L670.626533,2334.071612 L670.626533,2205.911612 L438.786533,2205.911612 L438.786533,3277.271612 Z " stroke="none" />
  <path class="word-all" d="M246.334291,4048.499420 L211.774291,4048.499420 L229.054291,3596.339420 Z M259.294291,4388.339420 L394.654291,4388.339420 L322.654291,3316.979420 L144.094291,3316.979420 L76.414291,4388.339420 L197.374291,4388.339420 L206.014291,4170.899420 L250.654291,4170.899420 Z " stroke="none" />
  <path class="word-all" d="M422.854291,3316.979420 L422.854291,4388.339420 L648.934291,4388.339420 L648.934291,4257.299420 L562.534291,4257.299420 L561.094291,3316.979420 L422.854291,3316.979420 Z " stroke="none" />
  <path class="word-all" d="M687.214291,3316.979420 L687.214291,4388.339420 L913.294291,4388.339420 L913.294291,4257.299420 L826.894291,4257.299420 L825.454291,3316.979420 L687.214291,3316.979420 Z " stroke="none" />
  <path class="logo-fill" d="M141.178313,5499.279922 L279.418313,5499.279922 L279.418313,4556.079922 L342.778313,4556.079922 L342.778313,4427.919922 L79.258313,4427.919922 L79.258313,4556.079922 L141.178313,4556.079922 L141.178313,5499.279922 Z " stroke="none" />
  <path class="logo-fill" d="M381.058313,5499.279922 L522.178313,5499.279922 L522.178313,5011.119922 L550.978313,5011.119922 L550.978313,5499.279922 L690.658313,5499.279922 L690.658313,4427.919922 L550.978313,4427.919922 L550.978313,4865.679922 L522.178313,4865.679922 L522.178313,4427.919922 L381.058313,4427.919922 L381.058313,5499.279922 Z " stroke="none" />
  <path class="logo-fill" d="M872.938313,4427.919922 L731.818313,4427.919922 L731.818313,5499.279922 L872.938313,5499.279922 L872.938313,4427.919922 Z " stroke="none" />
  <path class="logo-fill" d="M915.538313,4427.919922 L915.538313,5499.279922 L1029.298313,5499.279922 L1027.858313,4810.959922 L1094.098313,5499.279922 L1225.138313,5499.279922 L1225.138313,4427.919922 L1109.938313,4427.919922 L1112.818313,5045.679922 L1058.098313,4427.919922 L915.538313,4427.919922 Z " stroke="none" />
  <path class="logo-fill" d="M1375.738313,5506.479922 C1423.258313,5506.479922,1452.058313,5471.919922,1470.778313,5443.119922 C1475.098313,5456.079922,1483.738313,5484.879922,1485.178313,5499.279922 L1580.218313,5499.279922 L1580.218313,4872.879922 L1420.378313,4872.879922 L1420.378313,4982.319922 L1447.738313,4982.319922 L1447.738313,5363.919922 C1447.738313,5381.199922,1440.538313,5389.839922,1427.578313,5389.839922 C1414.618313,5389.839922,1408.858313,5381.199922,1408.858313,5363.919922 L1408.858313,4560.399922 C1408.858313,4547.439922,1411.738313,4538.799922,1423.258313,4538.799922 C1437.658313,4538.799922,1439.098313,4547.439922,1439.098313,4560.399922 L1439.098313,4838.319922 L1574.458313,4838.319922 L1574.458313,4553.199922 C1574.458313,4485.519922,1544.218313,4420.719922,1431.898313,4420.719922 L1413.178313,4420.719922 C1302.298313,4420.719922,1266.298313,4485.519922,1266.298313,4561.839922 L1266.298313,5371.119922 C1266.298313,5444.559922,1300.858313,5506.479922,1372.858313,5506.479922 L1375.738313,5506.479922 Z " stroke="none" />
  <path class="logo-fill" d="M1755.298313,5506.479922 L1786.978313,5506.479922 C1884.898313,5506.479922,1930.978313,5450.319922,1930.978313,5359.599922 L1930.978313,5083.119922 C1930.978313,5008.239922,1913.698313,4969.359922,1858.978313,4920.399922 L1784.098313,4845.519922 C1766.818313,4826.799922,1762.498313,4818.159922,1762.498313,4790.799922 L1762.498313,4547.439922 C1762.498313,4535.919922,1766.818313,4530.159922,1776.898313,4530.159922 C1786.978313,4530.159922,1791.298313,4535.919922,1791.298313,4547.439922 L1791.298313,4829.679922 L1925.218313,4829.679922 L1925.218313,4541.679922 C1925.218313,4472.559922,1894.978313,4420.719922,1792.738313,4420.719922 L1761.058313,4420.719922 C1660.258313,4420.719922,1621.378313,4472.559922,1621.378313,4553.199922 L1621.378313,4796.559922 C1621.378313,4862.799922,1638.658313,4910.319922,1684.738313,4953.519922 L1761.058313,5028.399922 C1781.218313,5048.559922,1785.538313,5060.079922,1785.538313,5088.879922 L1785.538313,5366.799922 C1785.538313,5381.199922,1781.218313,5389.839922,1769.698313,5389.839922 C1758.178313,5389.839922,1755.298313,5381.199922,1755.298313,5366.799922 L1755.298313,5042.799922 L1617.058313,5042.799922 L1617.058313,5376.879922 C1617.058313,5461.839922,1663.138313,5506.479922,1755.298313,5506.479922 Z " stroke="none" />
</g></svg>